<svg width="40" height="40" fill="none" xmlns="http://www.w3.org/2000/svg"><path d="M20 .8C9.396.8.8 9.396.8 20S9.396 39.2 20 39.2 39.2 30.604 39.2 20 30.604.8 20 .8Zm1.314 23.75c-1.232-.094-1.748-.704-2.712-1.288-.53 2.782-1.178 5.45-3.098 6.844-.594-4.208.868-7.364 1.548-10.718-1.158-1.95.138-5.872 2.582-4.908 3.006 1.192-2.604 7.25 1.162 8.008 3.932.788 5.538-6.824 3.1-9.296-3.524-3.574-10.254-.082-9.426 5.034.2 1.25 1.494 1.63.516 3.356-2.254-.5-2.928-2.278-2.84-4.648.138-3.88 3.486-6.598 6.842-6.972 4.246-.472 8.23 1.558 8.782 5.554.618 4.508-1.918 9.386-6.456 9.034Z" fill="#000"/></svg>